{"title":"Pyaar Tune Kya Kiya - Indian Telefilm -  HDTVRip 720p x264 AAC [","uid":15542970,"size":262743093,"categoryP":"video","categoryS":"tv_shows","magnet":"?xt=urn:btih:7618341cd5e41b261159839682a79a3761103ac2&amp;dn=Pyaar+Tune+Kya+Kiya+-+Indian+Telefilm+-++HDTVRip+720p+x264+AAC+%5B&amp;tr=udp%3A%2F%2Ftracker.leechers-paradise.org%3A6969&amp;tr=udp%3A%2F%2Fzer0day.ch%3A1337&amp;tr=udp%3A%2F%2Fopen.demonii.com%3A1337&amp;tr=udp%3A%2F%2Ftracker.coppersurfer.tk%3A6969&amp;tr=udp%3A%2F%2Fexodus.desync.com%3A6969","seeders":0,"leechers":1,"uploader":"MdTaRa","files":1,"time":1470938276,"description":"=========================================================================\r\nGeneral\r\nPyaar Tune Kya Kiya - Indian Telefilm -  HDTVRip 720p x264 AAC [ TaRa ].mkv\r\nFormat                      : Matroska\r\nFormat version              : Version 4 / Version 2\r\nFile size                   : 251 MiB\r\nDuration                    : 44 min\r\nOverall bit rate            : 779 kb/s\r\n=========================================================================\r\nVideo\r\nID                          : 1\r\nFormat                      : AVC\r\nFormat/Info                 : Advanced Video Codec\r\nFormat profile              :   \r\nFormat settings, CABAC      : Yes\r\nFormat settings, ReFrames   : 4 frames\r\nCodec ID                    : V_MPEG4/ISO/AVC\r\nDuration                    : 44 min\r\nBit rate                    : 672 kb/s\r\nWidth                       : 1 280 pixels\r\nHeight                      : 720 pixels\r\nDisplay aspect ratio        : 16:9\r\nFrame rate mode             : Constant\r\nFrame rate                  : 25.000 FPS\r\nColor space                 : YUV\r\nChroma subsampling          : 4:2:0\r\nBit depth                   : 8 bits\r\nScan type                   : Progressive\r\nBits/(Pixel*Frame)          : 0.029\r\nStream size                 : 216 MiB (86%)\r\nTitle                       : .....::::: TaRa :::::.....\r\nLanguage                    : Hindi\r\nDefault                     : Yes\r\nForced                      : No\r\n=======================================================================\r\nAudio\r\nID                          : 2\r\nFormat                      : AAC\r\nFormat/Info                 : Advanced Audio Codec\r\nFormat profile              : LC\r\nCodec ID                    : A_AAC\r\nDuration                    : 44 min\r\nBit rate                    : 104 kb/s\r\nChannel(s)                  : 2 channels\r\nChannel positions           : Front: L R\r\nSampling rate               : 48.0 kHz\r\nFrame rate                  : 46.875 FPS (1024 spf)\r\nCompression mode            : Lossy\r\nStream size                 : 33.6 MiB (13%)\r\nTitle                       : .....::::: TaRa :::::.....\r\nLanguage                    : Hindi\r\nDefault                     : Yes\r\nForced                      : No\r\n=========================================================================== \nhttp://imgur.com/VfV6YXL","torrent":{"xt":"urn:btih:7618341cd5e41b261159839682a79a3761103ac2","amp;dn":"Pyaar+Tune+Kya+Kiya+-+Indian+Telefilm+-++HDTVRip+720p+x264+AAC+%5B","amp;tr":["udp%3A%2F%2Ftracker.leechers-paradise.org%3A6969","udp%3A%2F%2Fzer0day.ch%3A1337","udp%3A%2F%2Fopen.demonii.com%3A1337","udp%3A%2F%2Ftracker.coppersurfer.tk%3A6969","udp%3A%2F%2Fexodus.desync.com%3A6969"],"infoHash":"7618341cd5e41b261159839682a79a3761103ac2","infoHashBuffer":{"type":"Buffer","data":[118,24,52,28,213,228,27,38,17,89,131,150,130,167,154,55,97,16,58,194]},"announce":[],"urlList":[]}}